# xmcd
#
# Track frame offsets:
# 150
# 15124
# 27511
# 43995
# 58800
# 76628
# 89987
# 109245
# 124395
# 137531
# 155821
# 168751
# 181309
# 196038
#
# Disc length: 2821 seconds
#
#
# Revision: 7
# Processed by: cddbd v1.5.2PL0 Copyright (c) Steve Scherf et al.
# Submitted via: FreeRIP 2.945 
#
DISCID=b80b030e
DTITLE=Mayck and Lyan - Mayck and Lyan - Defendendo A Tradição
DYEAR=2006
DGENRE=Country
TTITLE0=Pra Não Te Perder
TTITLE1=Viola Na Cachola
TTITLE2=Prisioneiro
TTITLE3=Em Tempo De Avanço/Na barba do leão
TTITLE4=A Correnteza
TTITLE5=Defendendo A Tradição
TTITLE6=Meu Erro
TTITLE7=Armadilha
TTITLE8=Modão De Cabra Macho
TTITLE9=Segundo Sol
TTITLE10=O Preço Da Glória
TTITLE11=Deixa A Poiera Voar
TTITLE12=Caboclo Sertanejo
TTITLE13=Querida
EXTD=YEAR: 2006
EXTT0=
EXTT1=
EXTT2=
EXTT3=
EXTT4=
EXTT5=
EXTT6=
EXTT7=
EXTT8=
EXTT9=
EXTT10=
EXTT11=
EXTT12=
EXTT13=
PLAYORDER=
